<?xml version="1.0" encoding="UTF-8" standalone="no"?>
<svg version = "1.1"
    baseProfile="full"
    xmlns = "http://www.w3.org/2000/svg" 
    xmlns:xlink = "http://www.w3.org/1999/xlink"
    xmlns:ev = "http://www.w3.org/2001/xml-events"
    height = "180px"  width = "300px">
    <rect x="0" y="0" width="300" height="180" fill="#182033" />
    <polygon points="0,0 90,90 0,90" fill="#c56249" />
    <polygon points="45,0 135,90 45,90" fill="#ec9958" />
    <!--<g transform="translate(45,90)">
    <path d="M0 0-45 0A99 99 0 1 0 0 45Z" fill="#182033" />
    <path d="M0 0-70 70A99 99 0 0 1-70-70Z" fill="#f00"/>
    <path d="M0 0-70-70A99 99 0 0 1 70-70Z" fill="#080"/>
    <path d="M0 0 70-70A99 99 0 0 1 70 70Z" fill="#dd0"/>
    <path d="M0 0 70 70A99 99 0 0 1-70 70Z" fill="#04e"/>
    </g>-->
     <!--<g fill-opacity="1" stroke="black" stroke-width="0px">
        <circle cx="200px" cy="200px" r="104px" fill="red"   transform="translate(  0,-52)" />
        <circle cx="200px" cy="200px" r="104px" fill="blue"  transform="translate( 60, 52)" />
        <circle cx="200px" cy="200px" r="104px" fill="green" transform="translate(-60, 52)" />
     </g>-->
</svg>
