<?xml version="1.0"?>
<!-- Created by MetaPost 2.00 on 2019.10.02:2109 -->
<svg version="1.1" xmlns="http://www.w3.org/2000/svg" xmlns:xlink="http://www.w3.org/1999/xlink" width="300.000000" height="180.000000" viewBox="0 0 300.000000 180.000000">
<!-- Original BoundingBox: 0.000000 0.000000 300.000000 180.000000 -->
  <path d="M0.000000 180.000000L300.000000 180.000000L300.000000 -0.000000L0.000000 -0.000000Z" style="fill: rgb(12.109375%,12.500000%,21.484375%);stroke: none;"></path>
  <path d="M0.000000 -0.000000L90.000000 90.000000L0.000000 90.000000Z" style="fill: rgb(78.515625%,36.328125%,19.140625%);stroke: none;"></path>
  <path d="M90.000000 -0.000000L180.000000 90.000000L90.000000 90.000000Z" style="fill: rgb(16.015625%,42.578125%,38.671875%);stroke: none;"></path>
  <path d="M45.000000 -0.000000L135.000000 90.000000L45.000000 90.000000Z" style="fill: rgb(93.359375%,60.546875%,22.656250%);stroke: none;"></path>
  <path d="M45.000000 90.000000L45.000000 45.000000C33.064728 45.000000,21.619720 49.741974,13.180847 58.180847C4.741974 66.619720,0.000000 78.064728,0.000000 90.000000Z" style="fill: rgb(12.109375%,12.500000%,21.484375%);stroke: none;"></path>
  <path d="M45.000000 90.000000L45.000000 67.500000C39.032364 67.500000,33.309860 69.870987,29.090424 74.090424C24.870987 78.309860,22.500000 84.032364,22.500000 90.000000Z" style="fill: rgb(93.359375%,60.546875%,22.656250%);stroke: none;"></path>
  <path d="M45.000000 90.000000L90.000000 90.000000C90.000000 78.064728,85.258026 66.619720,76.819153 58.180847C68.380280 49.741974,56.935272 45.000000,45.000000 45.000000Z" style="fill: rgb(16.015625%,42.578125%,38.671875%);stroke: none;"></path>
  <path d="M135.000000 -0.000000L180.000000 -0.000000L180.000000 45.000000Z" style="fill: rgb(93.359375%,60.546875%,22.656250%);stroke: none;"></path>
  <path d="M270.000000 90.000000C270.000000 59.999084,270.000000 30.000916,270.000000 -0.000000C246.129456 -0.000000,223.239441 9.483948,206.361694 26.361694C189.483948 43.239441,180.000000 66.129456,180.000000 90.000000C210.000916 90.000000,239.999084 90.000000,270.000000 90.000000Z" style="fill: rgb(16.015625%,42.578125%,38.671875%);stroke: none;"></path>
  <path d="M270.000000 90.000000L270.000000 45.000000C258.064728 45.000000,246.619720 49.741974,238.180847 58.180847C229.741974 66.619720,225.000000 78.064728,225.000000 90.000000Z" style="fill: rgb(93.359375%,60.546875%,22.656250%);stroke: none;"></path>
  <path d="M270.000000 90.000000L300.000000 60.000000L300.000000 90.000000Z" style="fill: rgb(78.515625%,36.328125%,19.140625%);stroke: none;"></path>
  <path d="M0.000000 135.000000L0.000000 90.000000L45.000000 135.000000Z" style="fill: rgb(16.015625%,42.578125%,38.671875%);stroke: none;"></path>
  <path d="M0.000000 180.000000L90.000000 90.000000L90.000000 180.000000Z" style="fill: rgb(93.359375%,60.546875%,22.656250%);stroke: none;"></path>
  <path d="M45.000000 180.000000L45.000000 135.000000L90.000000 180.000000Z" style="fill: rgb(16.015625%,42.578125%,38.671875%);stroke: none;"></path>
  <path d="M180.000000 180.000000C180.000000 149.999084,180.000000 120.000916,180.000000 90.000000C156.129456 90.000000,133.239441 99.483948,116.361694 116.361694C99.483948 133.239441,90.000000 156.129456,90.000000 180.000000C120.000916 180.000000,149.999084 180.000000,180.000000 180.000000Z" style="fill: rgb(78.515625%,36.328125%,19.140625%);stroke: none;"></path>
  <path d="M180.000000 180.000000L180.000000 135.000000C168.064728 135.000000,156.619720 139.741974,148.180847 148.180847C139.741974 156.619720,135.000000 168.064728,135.000000 180.000000Z" style="fill: rgb(12.109375%,12.500000%,21.484375%);stroke: none;"></path>
  <path d="M180.000000 180.000000L225.000000 180.000000C225.000000 168.064728,220.258026 156.619720,211.819153 148.180847C203.380280 139.741974,191.935272 135.000000,180.000000 135.000000Z" style="fill: rgb(93.359375%,60.546875%,22.656250%);stroke: none;"></path>
  <path d="M270.000000 90.000000C270.000000 120.000916,270.000000 149.999084,270.000000 180.000000C270.000000 156.129456,260.516052 133.239441,243.638306 116.361694C226.760559 99.483948,203.870544 90.000000,180.000000 90.000000C210.000916 90.000000,239.999084 90.000000,270.000000 90.000000Z" style="fill: rgb(16.015625%,42.578125%,38.671875%);stroke: none;"></path>
  <path d="M270.000000 135.000000L270.000000 90.000000L300.000000 120.000000L300.000000 165.000000Z" style="fill: rgb(16.015625%,42.578125%,38.671875%);stroke: none;"></path>
  <path d="M270.000000 180.000000L270.000000 135.000000L300.000000 165.000000L300.000000 180.000000Z" style="fill: rgb(93.359375%,60.546875%,22.656250%);stroke: none;"></path>
</svg>
